# xmcd
#
# Track frame offsets:
# 150
# 17403
# 34623
# 49783
# 61953
# 74835
# 84018
# 98455
# 113793
# 125775
# 139135
# 154223
# 168063
# 179875
# 207452
#
# Disc length: 3070 seconds
#
# Revision: 1
# Processed by: cddbd v1.5.1PL0 Copyright (c) Steve Scherf et al.
# Submitted via: CedeCatalogueitor 2.6.0.6 http://personales.ya.com/cdcatalogueitor
#
DISCID=cd0bfc0f
DTITLE=JAVIER ALVARES - " Tres "  (FUNDAMENTALES)
DYEAR=2004
DGENRE=
TTITLE0=Padre
TTITLE1=Cero Cero
TTITLE2=Tururú
TTITLE3=One
TTITLE4=Patio
TTITLE5=Y Los Dos
TTITLE6=La Huída
TTITLE7=Manda
TTITLE8=El Preso Me Pone
TTITLE9=Otra Estación
TTITLE10=María Luisa
TTITLE11=Secuela
TTITLE12=Deja
TTITLE13=Tan Real
TTITLE14=---DATOS---
EXTD=
EXTT0=
EXTT1=
EXTT2=
EXTT3=
EXTT4=
EXTT5=
EXTT6=
EXTT7=
EXTT8=
EXTT9=
EXTT10=
EXTT11=
EXTT12=
EXTT13=
EXTT14=
PLAYORDER=
